<?xml version="1.0" standalone="no"?>
<!DOCTYPE svg PUBLIC "-//W3C//DTD SVG 20010904//EN"
 "http://www.w3.org/TR/2001/REC-SVG-20010904/DTD/svg10.dtd">
<svg version="1.0" xmlns="http://www.w3.org/2000/svg"
 width="300.000000pt" height="300.000000pt" viewBox="0 0 300.000000 300.000000"
 preserveAspectRatio="xMidYMid meet">
<metadata>
Created by potrace 1.14, written by Peter Selinger 2001-2017
</metadata>
<g transform="translate(0.000000,300.000000) scale(0.100000,-0.100000)"
fill="#000000" stroke="none">
<path d="M1281 2144 c-122 -33 -257 -134 -346 -259 -25 -34 -45 -65 -45 -68 0
-2 27 -7 60 -9 70 -5 101 -28 126 -94 13 -35 16 -91 18 -326 2 -325 6 -346 86
-429 87 -89 183 -109 547 -109 l253 0 -34 45 c-50 65 -51 85 -16 236 54 227
51 394 -10 583 -59 184 -163 312 -311 385 -124 61 -220 74 -328 45z m22 -145
c129 -32 253 -214 299 -437 27 -132 22 -325 -11 -427 -27 -86 -80 -162 -126
-181 -87 -36 -215 -1 -264 71 -44 66 -51 120 -50 395 0 252 -6 318 -41 440
-22 78 -2 115 75 135 63 17 67 17 118 4z"/>
<path d="M1192 1908 c-17 -17 -15 -54 4 -72 24 -24 61 -20 80 9 15 23 15 27 0
50 -18 27 -63 34 -84 13z"/>
</g>
</svg>
